# xmcd
#
# Track frame offsets:
#	150
#	9823
#	32387
#	48516
#	63995
#	81627
#	101926
#	122128
#	135224
#	151946
#	165985
#	178920
#	192221
#	208690
#	225699
#	247139
#	261737
#	283316
#	298008
#	314133
#	326641
#
# Disc length: 4665 seconds
#
# Revision: 0
# Processed by: cddbd v1.5.2PL0 Copyright (c) Steve Scherf et al.
# Submitted via: audiograbber 1.83.01
#
DISCID=3e123715
DTITLE=Various Artist - Macca's Top 100 [Disc 3]
DYEAR=2012
DGENRE=Country
TTITLE0=Drew Forsythe - Macca On A Sunday Morning
TTITLE1=Ian McNamara with Digger Revell - The Man With The Big Hat
TTITLE2=L.J. Hill - Pretty Bird Tree
TTITLE3=The Honeys - In The Sun
TTITLE4=Caitlin Smith - Where Fairburn Walked
TTITLE5=Janet Seidel - I Like Jerseys Best
TTITLE6=Hugh McDonald - Diamantina Drover
TTITLE7=Roger Hott and Penny Davies - The Monkeys Sing Soprano (Around Stanthorpe
TTITLE7=In July)
TTITLE8=The Purple Dentists - St Kilda Nights
TTITLE9=Peter Lillie - New Road To Gundagai
TTITLE10=The Burgundian Consort with Carolyn Johns - Stringy Bark Tree
TTITLE11=International Novelty Quartet - Silver Bell
TTITLE12=Ian McNamara - The Last Ten Years
TTITLE13=Mesa Band - Fly In Fly Out
TTITLE14=Tony McKenna - One Tree Plain
TTITLE15=Ted Egan - The Last Of The Packhorse Bagmen
TTITLE16=John Broomhall - Wild And Free
TTITLE17=Robert Keane - The Old North Queensland Accent
TTITLE18=The Texettes - The Land That We Love
TTITLE19=Greg Champion - I Made A Hundred In The Backyard At Mum's
TTITLE20=Kevin Baker - The Snowy River Men
EXTD=
EXTT0=
EXTT1=
EXTT2=
EXTT3=
EXTT4=
EXTT5=
EXTT6=
EXTT7=
EXTT8=
EXTT9=
EXTT10=
EXTT11=
EXTT12=
EXTT13=
EXTT14=
EXTT15=
EXTT16=
EXTT17=
EXTT18=
EXTT19=
EXTT20=
PLAYORDER=
